<svg xmlns="http://www.w3.org/2000/svg" xmlns:xlink="http://www.w3.org/1999/xlink" version="1.1" x="0px" y="0px" viewBox="0 0 371.9 63" enable-background="new 0 0 371.9 63" xml:space="preserve"><g><path d="M30.7 3.3c-16 0-29 13-29 29s13 29 29 29c16 0 29-13 29-29S46.7 3.3 30.7 3.3z M33.1 46.7h-4.7L16.6 23.4h8.3l5.9 12.5 l5.9-12.5h8.3L33.1 46.7z"/></g><g><g><path d="M80.9 23.3l5.9 15l5.9-15h5.8l-9.9 23.4H85l-9.9-23.4H80.9z"/><path d="M112.6 42.3h-8.9l-1.8 4.4h-5.6l9.5-23.4h5l9.2 23.4h-5.6L112.6 42.3z M111.1 38.2l-2.9-7.9l-2.9 7.9H111.1z"/><path d="M130.8 23.3c3 0 4.9 1 6 2c1 0.9 2 2.6 2 5.2c0 1.5-0.3 3.3-1.8 4.8c-0.8 0.8-2 1.5-3.3 1.8l7.2 9.6h-6.6l-6.3-9.2v9.2 h-5.4V23.3H130.8z M128 33.9h1.2c1 0 2.3-0.1 3.2-1c0.4-0.4 0.9-1.1 0.9-2.3c0-1.3-0.6-2-1.1-2.4c-0.9-0.7-2.3-0.7-3-0.7H128V33.9 z"/><path d="M149.4 23.3v23.4H144V23.3H149.4z"/><path d="M168.5 42.3h-8.9l-1.8 4.4h-5.6l9.5-23.4h5l9.2 23.4h-5.6L168.5 42.3z M167 38.2l-2.9-7.9l-2.9 7.9H167z"/><path d="M178.5 46.7V23.3h4.7l12.7 15.1V23.3h5.4v23.4h-4.7l-12.7-15.2v15.2H178.5z"/><path d="M214.7 27.9v18.9h-5.4V27.9h-5.1v-4.6h15.6v4.6H214.7z"/><path d="M242.9 29c-1.8-1.6-3.3-1.7-3.9-1.7c-0.7 0-1.7 0.1-2.3 0.8c-0.4 0.4-0.6 0.9-0.6 1.5c0 0.6 0.2 1 0.5 1.3 c0.6 0.5 1.4 0.7 3 1.3l1.8 0.7c1 0.4 2.3 0.9 3.2 1.8c1.4 1.3 1.7 3 1.7 4.4c0 2.4-0.8 4.5-2.1 5.8c-2.1 2.2-5.1 2.4-6.6 2.4 c-1.7 0-3.2-0.2-4.6-1c-1.2-0.6-2.6-1.7-3.4-2.6l2.8-3.9c0.6 0.6 1.5 1.4 2.2 1.8c0.9 0.6 1.9 0.8 3 0.8c0.7 0 1.7-0.1 2.5-0.8 c0.5-0.4 0.8-1 0.8-1.9c0-0.8-0.3-1.3-0.8-1.7c-0.6-0.5-2.1-1.1-2.7-1.3l-1.9-0.7c-1.1-0.4-2.4-0.9-3.3-1.9 c-1.2-1.3-1.4-3-1.4-4.1c0-2.1 0.6-3.8 2-5.3c1.7-1.7 3.6-2.1 5.8-2.1c1.6 0 4.2 0.3 7 2.3L242.9 29z"/><path d="M258.4 27.9v18.9H253V27.9h-5.1v-4.6h15.6v4.6H258.4z"/><path d="M286.2 37.2c0 2.2-0.3 5-2.6 7.4c-2.2 2.3-4.9 2.7-7.3 2.7c-2.5 0-5.1-0.4-7.3-2.7c-2.3-2.4-2.6-5.2-2.6-7.4V23.3h5.4V37 c0 1 0.1 2.7 1.2 3.9c0.9 1 2.2 1.2 3.3 1.2c1 0 2.3-0.2 3.3-1.2c1.2-1.2 1.2-2.9 1.2-3.9V23.3h5.4V37.2z"/><path d="M298.7 23.3c3.1 0 6.4 0.5 9.2 3.2c2.1 2 3.4 4.7 3.4 8.4c0 3.7-1.3 6.4-3.2 8.3c-3.2 3.3-7.3 3.5-9.2 3.5h-7.6V23.3 H298.7z M296.7 42.2h1.4c1.1 0 3.6-0.1 5.3-1.6c1.3-1.1 2.3-3.1 2.3-5.7c0-2.5-1-4.1-1.9-5.1c-1.8-1.8-4-2-5.7-2h-1.4V42.2z"/><path d="M320.9 23.3v23.4h-5.4V23.3H320.9z"/><path d="M346.9 26.2c2.2 2.1 3.7 5.2 3.7 8.9c0 3.1-1.1 6.3-3.7 8.8c-2.2 2.1-5.1 3.4-9.1 3.4c-4.4 0-7.4-1.8-9.1-3.4 c-2.2-2.1-3.7-5.3-3.7-8.7c0-3.4 1.5-6.8 3.6-8.9c1.6-1.6 4.5-3.4 9.2-3.4C341.5 22.8 344.6 23.9 346.9 26.2z M332.7 29.8 c-1 1-2.1 2.7-2.1 5.3c0 2.1 0.7 3.9 2.1 5.3c1.5 1.4 3.2 1.9 5 1.9c2.4 0 4.1-0.9 5.2-2c0.9-0.9 2-2.5 2-5.2c0-2.4-1-4.2-2-5.3 c-1.2-1.1-3-2-5.2-2C335.8 27.8 333.9 28.5 332.7 29.8z"/><path d="M366.7 29c-1.8-1.6-3.3-1.7-3.9-1.7c-0.7 0-1.7 0.1-2.3 0.8c-0.4 0.4-0.6 0.9-0.6 1.5c0 0.6 0.2 1 0.5 1.3 c0.6 0.5 1.4 0.7 3 1.3l1.8 0.7c1 0.4 2.3 0.9 3.2 1.8c1.4 1.3 1.7 3 1.7 4.4c0 2.4-0.8 4.5-2.1 5.8c-2.1 2.2-5.1 2.4-6.6 2.4 c-1.7 0-3.2-0.2-4.6-1c-1.2-0.6-2.6-1.7-3.4-2.6l2.8-3.9c0.6 0.6 1.5 1.4 2.2 1.8c0.9 0.6 1.9 0.8 3 0.8c0.7 0 1.7-0.1 2.5-0.8 c0.5-0.4 0.8-1 0.8-1.9c0-0.8-0.3-1.3-0.8-1.7c-0.6-0.5-2.1-1.1-2.7-1.3l-1.9-0.7c-1.1-0.4-2.4-0.9-3.3-1.9 c-1.2-1.3-1.4-3-1.4-4.1c0-2.1 0.6-3.8 2-5.3c1.7-1.7 3.6-2.1 5.8-2.1c1.6 0 4.2 0.3 7 2.3L366.7 29z"/></g></g></svg>