<?xml version="1.0" encoding="utf-8"?><!DOCTYPE svg PUBLIC "-//W3C//DTD SVG 1.1//EN" "http://www.w3.org/Graphics/SVG/1.1/DTD/svg11.dtd"><svg xmlns="http://www.w3.org/2000/svg" xmlns:xlink="http://www.w3.org/1999/xlink" version="1.1" x="0px" y="0px" viewBox="0 0 200 200" enable-background="new 0 0 200 200" xml:space="preserve"><g><g><path d="M80.9 72.8l19.2 40.7l19.2-40.7h26.9l-38.5 76H92.5L54 72.8H80.9z"/></g></g><path d="M100.2 194.4c-52.1 0-94.5-42.4-94.5-94.5c0-52.1 42.4-94.5 94.5-94.5s94.5 42.4 94.5 94.5 C194.7 152 152.3 194.4 100.2 194.4z M100.2 20c-44 0-79.8 35.8-79.8 79.8s35.8 79.8 79.8 79.8c44 0 79.8-35.8 79.8-79.8 S144.2 20 100.2 20z"/></svg>